<svg width="2116" height="351" viewBox="0 0 2116 351" fill="none" xmlns="http://www.w3.org/2000/svg">
<path d="M2115.35 68.8057H1528.84V185.076H2115.35V68.8057Z" fill="white"/>
<path d="M424.344 262.175H407.594V257.605H446.134V262.175H429.384V298.605H424.344V262.175Z" fill="white"/>
<path d="M476.235 294.035H502.585V298.605H471.195V257.605H502.585V262.175H476.235V274.945H499.655V279.505H476.235V294.025V294.035Z" fill="white"/>
<path d="M542.061 277.875L525.891 257.605H532.211L545.211 273.885L558.211 257.605H564.531L548.361 277.875L564.881 298.605H558.561L545.201 281.855L531.851 298.605H525.531L542.041 277.875H542.061Z" fill="white"/>
<path d="M589.5 257.605H594.54V274.945H618.55V257.605H623.59V298.605H618.55V279.516H594.54V298.605H589.5V257.605Z" fill="white"/>
<path d="M662.353 297.725C659.813 296.675 657.603 295.205 655.733 293.335C653.863 291.465 652.383 289.225 651.313 286.635C650.243 284.035 649.703 281.195 649.703 278.115C649.703 275.035 650.233 272.195 651.313 269.595C652.383 266.995 653.863 264.765 655.733 262.885C657.603 261.015 659.813 259.545 662.353 258.495C664.893 257.445 667.623 256.915 670.553 256.915C673.483 256.915 676.213 257.435 678.753 258.495C681.293 259.545 683.493 261.015 685.373 262.885C687.243 264.755 688.723 266.995 689.793 269.595C690.863 272.195 691.403 275.035 691.403 278.115C691.403 281.195 690.873 284.035 689.793 286.635C688.723 289.235 687.243 291.465 685.373 293.335C683.503 295.205 681.293 296.675 678.753 297.725C676.213 298.775 673.483 299.305 670.553 299.305C667.623 299.305 664.893 298.785 662.353 297.725ZM676.733 293.505C678.663 292.685 680.343 291.545 681.773 290.075C683.193 288.615 684.313 286.855 685.133 284.805C685.953 282.755 686.363 280.525 686.363 278.105C686.363 275.685 685.953 273.445 685.133 271.395C684.313 269.345 683.193 267.585 681.773 266.125C680.343 264.665 678.663 263.515 676.733 262.695C674.803 261.875 672.743 261.465 670.553 261.465C668.363 261.465 666.303 261.875 664.373 262.695C662.443 263.515 660.763 264.655 659.333 266.125C657.913 267.585 656.793 269.345 655.973 271.395C655.153 273.445 654.743 275.685 654.743 278.105C654.743 280.525 655.153 282.755 655.973 284.805C656.793 286.855 657.913 288.615 659.333 290.075C660.763 291.535 662.443 292.685 664.373 293.505C666.303 294.325 668.363 294.735 670.553 294.735C672.743 294.735 674.803 294.325 676.733 293.505Z" fill="white"/>
<path d="M750.673 298.606H745.633V262.176H726.773L724.433 292.276C724.233 294.616 723.543 296.276 722.353 297.256C721.163 298.236 719.393 298.716 717.053 298.716H712.953V293.676H716.933C717.753 293.676 718.373 293.466 718.783 293.056C719.193 292.646 719.433 292.036 719.513 291.216L722.203 257.596H750.673V298.596V298.606Z" fill="white"/>
<path d="M789.447 297.725C786.907 296.675 784.697 295.205 782.827 293.335C780.957 291.465 779.477 289.225 778.407 286.635C777.337 284.035 776.797 281.195 776.797 278.115C776.797 275.035 777.327 272.195 778.407 269.595C779.477 266.995 780.957 264.765 782.827 262.885C784.697 261.015 786.907 259.545 789.447 258.495C791.987 257.445 794.717 256.915 797.647 256.915C800.577 256.915 803.307 257.435 805.847 258.495C808.387 259.545 810.587 261.015 812.467 262.885C814.337 264.755 815.817 266.995 816.887 269.595C817.957 272.195 818.497 275.035 818.497 278.115C818.497 281.195 817.967 284.035 816.887 286.635C815.817 289.235 814.337 291.465 812.467 293.335C810.597 295.205 808.387 296.675 805.847 297.725C803.307 298.775 800.577 299.305 797.647 299.305C794.717 299.305 791.987 298.785 789.447 297.725ZM803.827 293.505C805.757 292.685 807.437 291.545 808.867 290.075C810.287 288.615 811.407 286.855 812.227 284.805C813.047 282.755 813.457 280.525 813.457 278.105C813.457 275.685 813.047 273.445 812.227 271.395C811.407 269.345 810.287 267.585 808.867 266.125C807.437 264.665 805.757 263.515 803.827 262.695C801.897 261.875 799.837 261.465 797.647 261.465C795.457 261.465 793.397 261.875 791.467 262.695C789.537 263.515 787.857 264.655 786.427 266.125C785.007 267.585 783.887 269.345 783.067 271.395C782.247 273.445 781.837 275.685 781.837 278.105C781.837 280.525 782.247 282.755 783.067 284.805C783.887 286.855 785.007 288.615 786.427 290.075C787.857 291.535 789.537 292.685 791.467 293.505C793.397 294.325 795.457 294.735 797.647 294.735C799.837 294.735 801.897 294.325 803.827 293.505Z" fill="white"/>
<path d="M844.612 257.605H875.412V262.175H849.642V298.605H844.602V257.605H844.612Z" fill="white"/>
<path d="M935.857 298.605H930.817V263.695L906.567 298.605H900.477V257.605H905.517V292.516L929.767 257.605H935.857V298.605Z" fill="white"/>
<path d="M999.693 298.605H994.653V263.695L970.403 298.605H964.312V257.605H969.353V292.516L993.603 257.605H999.693V298.605Z" fill="white"/>
<path d="M1096.9 298.605H1091.86V263.695L1067.61 298.605H1061.52V257.605H1066.56V292.516L1090.81 257.605H1096.9V298.605Z" fill="white"/>
<path d="M1168.76 297.725C1166.22 296.675 1164.04 295.205 1162.23 293.335C1160.41 291.465 1158.99 289.225 1157.96 286.635C1156.92 284.035 1156.41 281.195 1156.41 278.115C1156.41 275.035 1156.92 272.195 1157.96 269.595C1158.99 266.995 1160.42 264.765 1162.23 262.885C1164.05 261.015 1166.22 259.545 1168.76 258.495C1171.29 257.445 1174.05 256.915 1177.02 256.915C1179.52 256.915 1181.82 257.275 1183.93 258.005C1186.04 258.725 1187.93 259.745 1189.61 261.075C1191.29 262.395 1192.71 263.985 1193.88 265.815C1195.05 267.655 1195.95 269.685 1196.58 271.905H1191.31C1190.76 270.305 1190.04 268.875 1189.14 267.605C1188.24 266.335 1187.19 265.245 1185.98 264.325C1184.77 263.405 1183.41 262.705 1181.91 262.215C1180.4 261.725 1178.77 261.485 1177.02 261.485C1174.76 261.485 1172.67 261.895 1170.78 262.715C1168.88 263.535 1167.24 264.675 1165.86 266.145C1164.47 267.605 1163.39 269.365 1162.61 271.415C1161.83 273.465 1161.44 275.705 1161.44 278.125C1161.44 280.545 1161.83 282.775 1162.61 284.825C1163.39 286.875 1164.47 288.635 1165.86 290.095C1167.25 291.555 1168.89 292.705 1170.78 293.525C1172.67 294.345 1174.75 294.755 1177.02 294.755C1178.78 294.755 1180.41 294.515 1181.91 294.025C1183.41 293.535 1184.77 292.835 1185.98 291.915C1187.19 290.995 1188.24 289.895 1189.14 288.605C1190.04 287.315 1190.76 285.895 1191.31 284.335H1196.58C1195.95 286.565 1195.06 288.595 1193.88 290.425C1192.71 292.265 1191.28 293.845 1189.61 295.175C1187.93 296.495 1186.04 297.525 1183.93 298.245C1181.82 298.965 1179.52 299.325 1177.02 299.325C1174.05 299.325 1171.3 298.805 1168.76 297.745V297.725Z" fill="white"/>
<path d="M1222.35 257.605H1243.2C1245.11 257.605 1246.86 257.855 1248.44 258.365C1250.02 258.875 1251.38 259.585 1252.54 260.505C1253.69 261.415 1254.59 262.525 1255.24 263.815C1255.88 265.105 1256.21 266.545 1256.21 268.145C1256.21 270.135 1255.72 271.865 1254.75 273.325C1253.77 274.785 1252.42 276.035 1250.71 277.045V277.275C1252.7 278.095 1254.31 279.445 1255.54 281.315C1256.77 283.185 1257.38 285.275 1257.38 287.585C1257.38 289.145 1257.09 290.605 1256.5 291.945C1255.91 293.285 1255.08 294.455 1253.98 295.425C1252.89 296.405 1251.55 297.175 1249.97 297.735C1248.39 298.305 1246.6 298.585 1244.61 298.585H1222.35V257.585V257.605ZM1243.2 275.415C1244.45 275.415 1245.56 275.255 1246.54 274.945C1247.52 274.635 1248.35 274.185 1249.03 273.595C1249.72 273.005 1250.24 272.305 1250.61 271.485C1250.98 270.665 1251.17 269.765 1251.17 268.785C1251.17 266.795 1250.46 265.195 1249.03 263.985C1247.61 262.775 1245.67 262.165 1243.2 262.165H1227.39V275.405H1243.2V275.415ZM1244.02 294.035C1245.39 294.035 1246.59 293.855 1247.62 293.515C1248.65 293.165 1249.52 292.665 1250.22 292.015C1250.93 291.375 1251.45 290.615 1251.8 289.765C1252.15 288.905 1252.33 287.985 1252.33 287.015C1252.33 286.045 1252.14 285.065 1251.77 284.205C1251.4 283.345 1250.86 282.605 1250.13 281.975C1249.4 281.355 1248.5 280.865 1247.43 280.515C1246.36 280.165 1245.13 279.995 1243.77 279.995H1227.37V294.045H1244L1244.02 294.035Z" fill="white"/>
<path d="M1285.49 298.605H1279.63L1289.76 281.735C1288.24 281.505 1286.83 281.055 1285.54 280.415C1284.25 279.775 1283.14 278.945 1282.2 277.925C1281.27 276.905 1280.54 275.715 1280.03 274.355C1279.52 272.995 1279.27 271.465 1279.27 269.785C1279.27 267.835 1279.61 266.096 1280.3 264.576C1280.98 263.056 1281.92 261.775 1283.11 260.745C1284.3 259.705 1285.71 258.926 1287.33 258.396C1288.95 257.876 1290.72 257.605 1292.63 257.605H1314.88V298.605H1309.84V281.975H1295.44L1285.49 298.605ZM1309.85 277.396V262.165H1292.64C1291.27 262.165 1290.07 262.355 1289.04 262.725C1288.01 263.095 1287.14 263.625 1286.43 264.305C1285.73 264.985 1285.2 265.786 1284.85 266.706C1284.5 267.626 1284.32 268.645 1284.32 269.775C1284.32 270.905 1284.5 271.886 1284.85 272.826C1285.2 273.756 1285.73 274.565 1286.43 275.255C1287.14 275.935 1288 276.465 1289.04 276.835C1290.07 277.205 1291.27 277.396 1292.64 277.396H1309.85Z" fill="white"/>
<path d="M1351.43 298.335C1349.17 297.695 1347.28 296.795 1345.78 295.635C1344.28 294.485 1343.13 293.115 1342.33 291.535C1341.53 289.955 1340.97 288.205 1340.66 286.295H1345.93C1346.24 287.585 1346.71 288.745 1347.34 289.775C1347.96 290.805 1348.81 291.695 1349.89 292.435C1350.96 293.175 1352.3 293.745 1353.9 294.135C1355.5 294.525 1357.42 294.725 1359.64 294.725C1363.51 294.725 1366.62 294.065 1368.98 292.735C1371.34 291.415 1372.53 289.495 1372.53 286.995C1372.53 284.925 1371.7 283.195 1370.04 281.815C1368.38 280.425 1365.93 279.735 1362.69 279.735H1353.67V275.175H1362.46C1363.78 275.175 1364.99 275.035 1366.09 274.765C1367.18 274.485 1368.12 274.075 1368.9 273.535C1369.68 272.985 1370.29 272.305 1370.72 271.485C1371.15 270.665 1371.36 269.705 1371.36 268.615C1371.36 267.365 1371.07 266.285 1370.51 265.395C1369.94 264.495 1369.13 263.755 1368.07 263.175C1367.02 262.585 1365.74 262.155 1364.24 261.885C1362.73 261.605 1361.05 261.475 1359.17 261.475C1354.92 261.475 1351.75 262.215 1349.68 263.695C1347.61 265.185 1346.36 267.245 1345.93 269.905H1340.66C1340.78 267.955 1341.28 266.175 1342.18 264.575C1343.08 262.975 1344.33 261.605 1345.93 260.475C1347.53 259.345 1349.45 258.465 1351.67 257.835C1353.89 257.215 1356.39 256.905 1359.16 256.905C1361.7 256.905 1364.02 257.155 1366.13 257.665C1368.24 258.165 1370.06 258.925 1371.58 259.915C1373.1 260.905 1374.29 262.115 1375.12 263.515C1375.96 264.925 1376.38 266.545 1376.38 268.375C1376.38 270.445 1375.87 272.105 1374.86 273.355C1373.84 274.605 1372.48 275.755 1370.76 276.805V277.045C1372.75 277.865 1374.38 279.115 1375.65 280.785C1376.92 282.465 1377.56 284.575 1377.56 287.105C1377.56 288.905 1377.19 290.555 1376.44 292.055C1375.7 293.565 1374.59 294.845 1373.1 295.925C1371.62 296.995 1369.76 297.825 1367.51 298.415C1365.27 299.005 1362.64 299.295 1359.63 299.295C1356.43 299.295 1353.69 298.975 1351.43 298.325V298.335Z" fill="white"/>
<path d="M1402.85 257.605H1407.89V271.665H1422.88C1425.07 271.665 1427.08 272.005 1428.91 272.685C1430.74 273.375 1432.33 274.305 1433.65 275.495C1434.98 276.685 1436.01 278.105 1436.76 279.735C1437.5 281.375 1437.87 283.175 1437.87 285.125C1437.87 287.075 1437.5 288.825 1436.76 290.485C1436.02 292.145 1434.98 293.565 1433.65 294.755C1432.33 295.945 1430.74 296.885 1428.91 297.565C1427.07 298.245 1425.06 298.585 1422.88 298.585H1402.85V257.585V257.605ZM1422.88 294.035C1424.32 294.035 1425.65 293.825 1426.86 293.395C1428.07 292.965 1429.11 292.365 1430 291.585C1430.88 290.805 1431.57 289.865 1432.08 288.775C1432.59 287.685 1432.84 286.475 1432.84 285.145C1432.84 283.815 1432.59 282.605 1432.08 281.515C1431.57 280.415 1430.88 279.485 1430 278.705C1429.12 277.925 1428.07 277.325 1426.86 276.895C1425.65 276.465 1424.32 276.255 1422.88 276.255H1407.89V294.055H1422.88V294.035Z" fill="white"/>
<path d="M1527.83 307.385V298.595H1496.44V307.385H1491.52V294.025H1494.22C1495.04 294.025 1495.65 293.825 1496.06 293.415C1496.47 293.005 1496.71 292.396 1496.79 291.576L1499.95 257.605H1527.94V294.035H1532.74V307.396H1527.82L1527.83 307.385ZM1522.9 294.035V262.175H1504.51L1501.7 291.105C1501.62 291.655 1501.56 292.115 1501.52 292.485C1501.48 292.855 1501.44 293.166 1501.4 293.396C1501.32 293.676 1501.26 293.885 1501.22 294.035H1522.89H1522.9Z" fill="white"/>
<path d="M1590.38 298.606H1585.34V262.176H1566.48L1564.14 292.276C1563.94 294.616 1563.25 296.276 1562.06 297.256C1560.87 298.236 1559.1 298.716 1556.76 298.716H1552.66V293.676H1556.64C1557.46 293.676 1558.08 293.466 1558.49 293.056C1558.9 292.646 1559.14 292.036 1559.22 291.216L1561.91 257.596H1590.38V298.596V298.606Z" fill="white"/>
<path d="M1621.66 298.605H1615.8L1625.93 281.735C1624.41 281.505 1623 281.055 1621.71 280.415C1620.42 279.775 1619.31 278.945 1618.37 277.925C1617.44 276.905 1616.71 275.715 1616.2 274.355C1615.69 272.985 1615.44 271.465 1615.44 269.785C1615.44 267.835 1615.78 266.096 1616.47 264.576C1617.15 263.056 1618.09 261.775 1619.28 260.745C1620.47 259.705 1621.88 258.926 1623.5 258.396C1625.12 257.876 1626.89 257.605 1628.8 257.605H1651.05V298.605H1646.01V281.975H1631.61L1621.66 298.605ZM1646.02 277.396V262.165H1628.81C1627.44 262.165 1626.24 262.355 1625.21 262.725C1624.18 263.095 1623.31 263.625 1622.6 264.305C1621.9 264.985 1621.37 265.786 1621.02 266.706C1620.67 267.626 1620.49 268.645 1620.49 269.775C1620.49 270.905 1620.67 271.886 1621.02 272.826C1621.37 273.756 1621.9 274.565 1622.6 275.255C1623.31 275.935 1624.17 276.465 1625.21 276.835C1626.24 277.205 1627.44 277.396 1628.81 277.396H1646.02Z" fill="white"/>
<path d="M1717.93 273.536H1734.33C1736.52 273.536 1738.46 273.846 1740.16 274.466C1741.86 275.096 1743.29 275.966 1744.43 277.076C1745.58 278.196 1746.45 279.506 1747.04 281.036C1747.63 282.556 1747.92 284.236 1747.92 286.066C1747.92 287.896 1747.63 289.536 1747.04 291.076C1746.45 292.616 1745.59 293.946 1744.43 295.056C1743.28 296.166 1741.85 297.036 1740.16 297.666C1738.46 298.286 1736.52 298.596 1734.33 298.596H1712.89V257.596H1745.22V262.166H1717.93V273.526V273.536ZM1734.32 294.036C1735.76 294.036 1737.02 293.846 1738.1 293.456C1739.17 293.066 1740.06 292.516 1740.76 291.816C1741.47 291.106 1741.99 290.276 1742.34 289.296C1742.69 288.316 1742.87 287.246 1742.87 286.076C1742.87 284.906 1742.69 283.836 1742.34 282.856C1741.99 281.876 1741.46 281.046 1740.76 280.336C1740.06 279.636 1739.17 279.086 1738.1 278.696C1737.03 278.306 1735.77 278.116 1734.32 278.116H1717.92V294.046H1734.32V294.036Z" fill="white"/>
<path d="M1808.59 298.605H1803.55V263.695L1779.3 298.605H1773.21V257.605H1778.25V292.516L1802.5 257.605H1808.59V298.605Z" fill="white"/>
<path d="M1845.14 298.335C1842.88 297.695 1840.99 296.795 1839.49 295.635C1837.99 294.485 1836.84 293.115 1836.04 291.535C1835.24 289.955 1834.68 288.205 1834.37 286.295H1839.64C1839.95 287.585 1840.42 288.745 1841.05 289.775C1841.67 290.805 1842.52 291.695 1843.6 292.435C1844.67 293.175 1846.01 293.745 1847.61 294.135C1849.21 294.525 1851.13 294.725 1853.35 294.725C1857.22 294.725 1860.33 294.065 1862.69 292.735C1865.05 291.415 1866.24 289.495 1866.24 286.995C1866.24 284.925 1865.41 283.195 1863.75 281.815C1862.09 280.425 1859.64 279.735 1856.4 279.735H1847.38V275.175H1856.17C1857.49 275.175 1858.7 275.035 1859.8 274.765C1860.89 274.485 1861.83 274.075 1862.61 273.535C1863.39 272.985 1864 272.305 1864.43 271.485C1864.86 270.665 1865.07 269.705 1865.07 268.615C1865.07 267.365 1864.78 266.285 1864.22 265.395C1863.65 264.495 1862.84 263.755 1861.78 263.175C1860.73 262.585 1859.45 262.155 1857.95 261.885C1856.44 261.605 1854.76 261.475 1852.88 261.475C1848.63 261.475 1845.46 262.215 1843.39 263.695C1841.32 265.185 1840.07 267.245 1839.64 269.905H1834.37C1834.49 267.955 1834.99 266.175 1835.89 264.575C1836.79 262.975 1838.04 261.605 1839.64 260.475C1841.24 259.345 1843.16 258.465 1845.38 257.835C1847.6 257.215 1850.1 256.905 1852.87 256.905C1855.41 256.905 1857.73 257.155 1859.84 257.665C1861.95 258.165 1863.77 258.925 1865.29 259.915C1866.81 260.905 1868 262.115 1868.83 263.515C1869.67 264.925 1870.09 266.545 1870.09 268.375C1870.09 270.445 1869.58 272.105 1868.57 273.355C1867.55 274.605 1866.19 275.755 1864.47 276.805V277.045C1866.46 277.865 1868.09 279.115 1869.36 280.785C1870.63 282.465 1871.27 284.575 1871.27 287.105C1871.27 288.905 1870.9 290.555 1870.15 292.055C1869.41 293.565 1868.3 294.845 1866.81 295.925C1865.33 296.995 1863.47 297.825 1861.22 298.415C1858.98 299.005 1856.35 299.295 1853.34 299.295C1850.14 299.295 1847.4 298.975 1845.14 298.325V298.335Z" fill="white"/>
<path d="M1896.55 257.605H1901.59V274.945H1925.6V257.605H1930.64V298.605H1925.6V279.516H1901.59V298.605H1896.55V257.605Z" fill="white"/>
<path d="M1964.13 294.035H1990.48V298.605H1959.09V257.605H1990.48V262.175H1964.13V274.945H1987.55V279.505H1964.13V294.025V294.035Z" fill="white"/>
<path d="M2026.15 297.725C2023.61 296.675 2021.43 295.205 2019.62 293.335C2017.8 291.465 2016.38 289.225 2015.35 286.635C2014.31 284.035 2013.8 281.195 2013.8 278.115C2013.8 275.035 2014.31 272.195 2015.35 269.595C2016.38 266.995 2017.81 264.765 2019.62 262.885C2021.44 261.015 2023.61 259.545 2026.15 258.495C2028.68 257.445 2031.44 256.915 2034.41 256.915C2036.91 256.915 2039.21 257.275 2041.32 258.005C2043.43 258.725 2045.32 259.745 2047 261.075C2048.68 262.395 2050.1 263.985 2051.27 265.815C2052.44 267.655 2053.34 269.685 2053.97 271.905H2048.7C2048.15 270.305 2047.43 268.875 2046.53 267.605C2045.63 266.335 2044.58 265.245 2043.37 264.325C2042.16 263.405 2040.8 262.705 2039.3 262.215C2037.79 261.725 2036.16 261.485 2034.41 261.485C2032.15 261.485 2030.06 261.895 2028.17 262.715C2026.27 263.535 2024.63 264.675 2023.25 266.145C2021.86 267.605 2020.78 269.365 2020 271.415C2019.22 273.465 2018.83 275.705 2018.83 278.125C2018.83 280.545 2019.22 282.775 2020 284.825C2020.78 286.875 2021.86 288.635 2023.25 290.095C2024.64 291.555 2026.28 292.705 2028.17 293.525C2030.06 294.345 2032.14 294.755 2034.41 294.755C2036.17 294.755 2037.8 294.515 2039.3 294.025C2040.8 293.535 2042.16 292.835 2043.37 291.915C2044.58 290.995 2045.63 289.895 2046.53 288.605C2047.43 287.315 2048.15 285.895 2048.7 284.335H2053.97C2053.34 286.565 2052.45 288.595 2051.27 290.425C2050.1 292.265 2048.67 293.845 2047 295.175C2045.32 296.495 2043.43 297.525 2041.32 298.245C2039.21 298.965 2036.91 299.325 2034.41 299.325C2031.44 299.325 2028.69 298.805 2026.15 297.745V297.725Z" fill="white"/>
<path d="M2108.91 298.605L2104.4 288.415H2083.2L2078.69 298.605H2073.53L2091.68 257.605H2095.9L2114.06 298.605H2108.9H2108.91ZM2102.47 283.956L2093.92 264.635H2093.69L2085.14 283.956H2102.48H2102.47Z" fill="white"/>
<path fill-rule="evenodd" clip-rule="evenodd" d="M202.831 240.856H207.261C208.031 240.776 208.811 240.776 209.581 240.856C212.861 241.166 216.181 241.366 219.651 241.366C240.621 241.366 261.121 235.086 278.551 223.316C295.981 211.546 309.571 194.826 317.601 175.246C325.621 155.676 327.731 134.146 323.631 113.356C319.541 92.5761 309.441 73.4961 294.621 58.5161C279.791 43.5361 260.891 33.3261 240.331 29.2061C219.771 25.0761 198.451 27.1961 179.081 35.3061C159.701 43.4161 143.151 57.1361 131.491 74.7461C119.841 92.3661 113.631 113.066 113.631 134.256V140.666V342.566C74.371 327.696 41.691 299.086 21.541 261.926C1.39102 224.776 -4.89899 181.556 3.84101 140.116C12.581 98.6861 35.731 61.7961 69.111 36.1561C103.551 9.60608 144.151 -2.41392 185.721 0.40608C227.571 2.97608 267.121 20.6461 297.181 50.1861C327.231 79.7361 345.791 119.186 349.471 161.386C353.161 203.586 341.731 245.716 317.271 280.126C292.801 314.536 256.931 338.926 216.171 348.866C215.011 349.146 213.831 349.246 212.651 349.166C209.411 349.736 206.151 350.036 202.871 350.036C188.811 349.606 175.481 343.666 165.691 333.466C155.901 323.276 150.431 309.616 150.431 295.416C150.431 281.206 155.901 267.566 165.691 257.366C175.481 247.166 188.811 241.226 202.821 240.846" fill="#DB1415"/>
<path fill-rule="evenodd" clip-rule="evenodd" d="M113.611 261.746V342.546C76.281 328.316 44.8409 301.696 24.4609 267.036C50.4009 300.926 105.701 309.626 113.611 261.746Z" fill="#83B6E3"/>
<path fill-rule="evenodd" clip-rule="evenodd" d="M204.568 350.026C201.738 350.096 198.918 349.956 196.108 349.616C191.648 349.066 187.288 347.936 183.108 346.256C178.678 344.496 174.498 342.156 170.668 339.296C162.018 332.806 155.488 323.856 151.898 313.596C148.318 303.326 147.848 292.226 150.558 281.696C153.268 271.156 159.018 261.686 167.078 254.476C175.148 247.266 185.168 242.906 195.848 241.476C187.398 245.956 180.408 252.576 175.738 260.986C171.058 269.386 168.898 278.986 169.508 288.606C170.768 325.896 212.018 336.686 244.758 327.376C284.188 316.186 317.628 277.516 337.338 243.466C332.018 257.586 323.668 272.346 312.728 286.206C285.888 320.286 244.788 349.066 204.608 350.016H204.558L204.568 350.026Z" fill="#83B6E3"/>
<path fill-rule="evenodd" clip-rule="evenodd" d="M229.067 240.976C249.457 239.066 268.877 231.206 284.927 218.366C300.987 205.526 313.017 188.246 319.547 168.636C326.067 149.016 326.817 127.906 321.697 107.876C316.577 87.8357 305.817 69.7358 290.717 55.7558C275.597 41.7758 256.807 32.5457 236.597 29.1557C216.387 25.7757 195.647 28.3858 176.877 36.6958C158.107 44.9958 142.137 58.6157 130.887 75.9057C119.637 93.1957 113.707 113.426 113.617 134.126C113.617 153.656 113.617 173.246 113.617 192.836C38.0574 183.786 30.4174 67.8757 91.9174 21.1557C117.857 7.03572 146.897 -0.234245 176.367 0.00575505C205.827 0.255755 234.757 8.00573 260.467 22.5457C286.177 37.0857 307.837 57.9458 323.437 83.1958C339.267 108.356 348.277 137.246 349.857 166.986C337.417 188.516 319.717 206.536 298.597 219.426C277.477 232.316 253.497 239.836 229.057 240.966" fill="#BC1818"/>
<path fill-rule="evenodd" clip-rule="evenodd" d="M224.29 58.5654C239.24 58.5654 253.84 63.0454 266.27 71.4254C278.69 79.8154 288.37 91.7254 294.09 105.675C299.8 119.625 301.3 134.965 298.39 149.775C295.47 164.585 288.28 178.175 277.72 188.855C267.15 199.535 253.69 206.795 239.04 209.745C224.38 212.695 209.19 211.185 195.39 205.405C181.58 199.625 169.78 189.845 161.48 177.295C153.18 164.735 148.75 149.975 148.75 134.885C148.75 114.645 156.7 95.2354 170.87 80.9254C185.04 66.6054 204.26 58.5654 224.29 58.5654Z" fill="#83B6E3"/>
<path fill-rule="evenodd" clip-rule="evenodd" d="M292.89 167.236C288.09 177.466 281.11 186.496 272.44 193.656C263.77 200.826 253.62 205.956 242.74 208.666C231.86 211.386 220.53 211.626 209.55 209.366C198.57 207.106 188.22 202.416 179.26 195.616C170.3 188.826 162.94 180.106 157.72 170.086C152.51 160.066 149.57 148.996 149.11 137.686C148.65 126.376 150.69 115.106 155.08 104.686C159.47 94.276 166.09 84.9761 174.47 77.4561C163.69 93.3761 159.41 112.876 162.52 131.906C165.62 150.936 175.88 168.026 191.15 179.596C206.42 191.166 225.52 196.346 244.47 194.036C263.42 191.726 280.76 182.116 292.88 167.216" fill="#519AD3"/>
<path fill-rule="evenodd" clip-rule="evenodd" d="M263.257 86.7059C267.797 84.0059 275.797 89.2458 281.137 98.4058C286.477 107.566 287.137 117.176 282.547 119.886C277.967 122.576 270.007 117.336 264.667 108.176C259.327 99.0158 258.717 89.4059 263.257 86.7059Z" fill="#E6E8E7"/>
<path fill-rule="evenodd" clip-rule="evenodd" d="M208.25 58.3261C218.11 56.1161 228.29 55.8961 238.22 57.7061C248.16 59.4961 257.64 63.2761 266.12 68.8061C282.88 79.7361 294.86 96.7161 299.61 116.276C299.64 116.686 299.64 117.086 299.61 117.496V117.946V118.206C304.05 138.366 300.43 159.496 289.54 176.976C284.26 185.596 277.35 193.066 269.18 198.956C261.01 204.846 251.77 209.036 242 211.276H241.6H241.14C231.36 213.436 221.25 213.606 211.39 211.806C201.54 209.996 192.14 206.236 183.72 200.736C180.03 198.336 176.54 195.636 173.29 192.656L172.84 192.196C159.57 179.686 151.01 162.906 148.62 144.726C146.23 126.546 150.16 108.086 159.75 92.5161C165.07 83.8561 172.05 76.3761 180.28 70.4761C188.49 64.5861 197.81 60.3961 207.64 58.1761L208.24 58.3261H208.25ZM210.67 61.8861C212.74 80.2761 215.99 98.5261 220.39 116.486L220.79 118.216L222.26 117.856C234.45 115.146 246.06 110.226 256.5 103.306C252.6 93.7061 247.23 84.7961 240.59 76.8861C231.32 66.4061 220.69 60.6061 210.67 61.8761V61.8861ZM221.85 122.086C225.18 136.736 228.9 152.206 232.53 166.606C244.61 163.846 256.27 159.416 267.18 153.476C267.08 144.256 266.01 135.086 263.95 126.096C262.55 119.616 260.66 113.256 258.31 107.066C247.51 114.146 235.53 119.186 222.95 121.926L221.84 122.076L221.85 122.086ZM233.49 170.466C236.01 180.236 238.53 189.446 240.59 197.496C247.15 195.936 253.57 193.806 259.77 191.126C261.46 187.736 262.83 184.196 263.85 180.546C265.86 173.196 266.96 165.636 267.12 158.006C256.41 163.656 245.04 167.906 233.27 170.676L233.48 170.466H233.49ZM241.64 201.306L243.26 206.996C248.6 205.126 253.19 201.556 256.35 196.816C251.49 198.706 246.51 200.266 241.45 201.496L241.65 201.296L241.64 201.306ZM239.43 207.816L237.82 202.126C233.1 203.096 228.31 203.776 223.52 204.166C228.21 207.116 233.72 208.476 239.23 208.026L239.43 207.826V207.816ZM236.76 198.296C234.55 190.316 232.13 181.106 229.66 171.336C219.2 173.566 208.52 174.626 197.82 174.476C201.1 181.026 205.16 187.146 209.91 192.696C212.39 195.556 215.12 198.176 218.07 200.536C224.28 200.336 230.46 199.656 236.55 198.496L236.75 198.286L236.76 198.296ZM228.7 167.466C225.07 153.066 221.34 137.596 218.02 122.896C206.81 125.166 195.34 125.706 183.97 124.476C185.25 140.326 189.27 155.816 195.86 170.266C206.8 170.726 217.75 169.846 228.5 167.676L228.7 167.466ZM217.17 119.026L216.77 117.346C212.41 99.3961 209.15 81.1961 206.99 62.8561C197.72 66.0661 190.83 75.7261 186.84 89.1161C184.08 99.3161 182.97 109.906 183.57 120.456C194.69 121.796 205.96 121.386 216.96 119.236L217.16 119.036L217.17 119.026ZM226.07 60.4161C232.9 63.7161 238.95 68.4461 243.81 74.3061C250.56 82.2661 256.03 91.2461 260.03 100.916L260.83 100.256C269.39 93.1861 273.83 85.3461 272.57 78.3761C269.93 76.1061 267.14 74.0161 264.21 72.1261C252.76 64.7261 239.47 60.7361 225.88 60.6261L226.08 60.4261L226.07 60.4161ZM276.44 82.2361C275.7 86.4561 274.15 90.4961 271.87 94.1061C269.58 97.7161 266.62 100.846 263.14 103.316L261.38 104.686C267.11 119.546 270.31 135.256 270.85 151.196C274.16 149.206 277.34 146.996 280.37 144.586C291.3 135.926 297.39 126.366 296.03 118.076C292.94 104.516 286.16 92.1061 276.43 82.2461L276.44 82.2361ZM297.7 129.656C294.06 136.626 288.89 142.666 282.59 147.316C278.81 150.296 274.83 153.006 270.65 155.406C270.64 164.146 269.46 172.846 267.13 181.256C266.5 183.586 265.72 185.886 264.81 188.116C272.05 184.496 278.63 179.666 284.25 173.826C288.96 168.906 292.51 162.976 294.62 156.476C297.25 147.996 298.34 139.096 297.85 130.216L297.69 129.656H297.7ZM281.08 182.276C275.31 186.916 268.98 190.796 262.24 193.826C260.84 196.566 259.15 199.136 257.2 201.506C266.43 197.076 274.62 190.706 281.23 182.836L281.08 182.276ZM224.42 208.886C221.61 207.596 218.94 206.016 216.46 204.156C209.71 204.356 202.95 203.836 196.31 202.576C205.17 206.786 214.78 209.126 224.57 209.446L224.42 208.886ZM176.43 189.546C180.49 193.046 185.27 195.596 190.43 197.026C197.33 199.096 204.49 200.176 211.69 200.236C209.92 198.626 208.24 196.926 206.65 195.146C201.22 188.776 196.63 181.706 193 174.136C188.45 173.886 183.91 173.296 179.46 172.356C171.4 171.016 163.84 167.496 157.6 162.176C161.7 172.856 168.2 182.416 176.58 190.106L176.44 189.556L176.43 189.546ZM154.21 151.236C156.11 155.126 158.93 158.476 162.42 161.006C167.78 164.676 173.85 167.176 180.25 168.326C183.83 169.066 187.44 169.576 191.08 169.846C187.42 161.566 184.6 152.916 182.67 144.056C181.16 137.356 180.15 130.546 179.65 123.696L177.73 123.346C173.47 122.806 169.34 121.416 165.6 119.246C161.87 117.076 158.6 114.176 155.97 110.716C151.75 123.626 151.09 137.456 154.06 150.706L154.21 151.226V151.236ZM158.09 105.796C159.9 112.616 167.61 117.446 178.69 119.796H179.6C179.05 109.076 180.21 98.3461 183.02 87.9961C184.88 80.5461 188.32 73.6061 193.09 67.6361C180.9 73.6461 170.64 83.0161 163.47 94.6561C161.34 98.0861 159.49 101.706 157.93 105.446L158.08 105.806L158.09 105.796Z" fill="white"/>
<path fill-rule="evenodd" clip-rule="evenodd" d="M208.252 58.3261C218.112 56.1161 228.292 55.8961 238.222 57.7061C248.162 59.4961 257.642 63.2761 266.122 68.8061C282.882 79.7361 294.862 96.7161 299.612 116.276C299.642 116.686 299.642 117.086 299.612 117.496V117.946V118.206C304.052 138.366 300.432 159.496 289.542 176.976C284.262 185.596 277.352 193.066 269.182 198.956C263.732 202.886 248.102 210.076 241.592 211.216L241.132 211.276C231.172 213.036 221.242 213.606 211.382 211.806C201.532 209.996 192.132 206.236 183.712 200.736C180.022 198.336 176.532 195.636 173.282 192.656L172.832 192.196C159.562 179.686 151.002 162.906 148.612 144.726C146.222 126.546 150.152 108.086 159.742 92.5161C165.062 83.8561 172.042 76.3761 180.272 70.4761C188.482 64.5861 198.402 60.5561 208.242 58.3261M210.672 61.8861C212.742 80.2761 215.992 98.5261 220.392 116.486L220.792 118.216L222.262 117.856C234.452 115.146 246.062 110.226 256.502 103.306C252.602 93.7061 247.232 84.7961 240.592 76.8861C231.322 66.4061 220.692 60.6061 210.672 61.8761V61.8861ZM221.852 122.086C225.182 136.736 228.902 152.206 232.532 166.606C244.612 163.846 256.272 159.416 267.182 153.476C267.082 144.256 266.012 135.086 263.952 126.096C262.552 119.616 260.662 113.256 258.312 107.066C247.512 114.146 235.532 119.186 222.952 121.926L221.842 122.076L221.852 122.086ZM233.492 170.466C236.012 180.236 238.532 189.446 240.592 197.496C247.152 195.936 253.572 193.806 259.772 191.126C261.462 187.736 262.832 184.196 263.852 180.546C265.862 173.196 266.962 165.636 267.122 158.006C256.412 163.656 245.042 167.906 233.272 170.676L233.482 170.466H233.492ZM241.642 201.306L243.262 206.996C248.602 205.126 253.192 201.556 256.352 196.816C251.492 198.706 246.512 200.266 241.452 201.496L241.652 201.296L241.642 201.306ZM239.432 207.816L237.822 202.126C233.102 203.096 228.312 203.776 223.522 204.166C228.212 207.116 233.722 208.476 239.232 208.026L239.432 207.826V207.816ZM236.762 198.296C234.552 190.316 232.132 181.106 229.662 171.336C219.202 173.566 208.522 174.626 197.822 174.476C201.102 181.026 205.162 187.146 209.912 192.696C212.392 195.556 215.122 198.176 218.072 200.536C224.282 200.336 230.462 199.656 236.552 198.496L236.752 198.286L236.762 198.296ZM228.702 167.466C225.072 153.066 221.342 137.596 218.022 122.896C206.812 125.166 195.342 125.706 183.972 124.476C185.252 140.326 189.272 155.816 195.862 170.266C206.802 170.726 217.752 169.846 228.502 167.676L228.702 167.466ZM217.172 119.026L216.772 117.346C212.412 99.3961 209.152 81.1961 206.992 62.8561C197.722 66.0661 190.832 75.7261 186.842 89.1161C184.082 99.3161 182.972 109.906 183.572 120.456C194.692 121.796 205.962 121.386 216.962 119.236L217.162 119.036L217.172 119.026ZM226.072 60.4161C232.902 63.7161 238.952 68.4461 243.812 74.3061C250.562 82.2661 256.032 91.2461 260.032 100.916L260.832 100.256C269.392 93.1861 273.832 85.3461 272.572 78.3761C269.932 76.1061 267.142 74.0161 264.212 72.1261C252.762 64.7261 239.472 60.7361 225.882 60.6261L226.082 60.4261L226.072 60.4161ZM276.442 82.2361C275.702 86.4561 274.152 90.4961 271.872 94.1061C269.582 97.7161 266.622 100.846 263.142 103.316L261.382 104.686C267.112 119.546 270.312 135.256 270.852 151.196C274.162 149.206 277.342 146.996 280.372 144.586C291.302 135.926 297.392 126.366 296.032 118.076C292.942 104.516 286.162 92.1061 276.432 82.2461L276.442 82.2361ZM297.702 129.656C294.062 136.626 288.892 142.666 282.592 147.316C278.812 150.296 274.832 153.006 270.652 155.406C270.642 164.146 269.462 172.846 267.132 181.256C266.502 183.586 265.722 185.886 264.812 188.116C272.052 184.496 278.632 179.666 284.252 173.826C288.962 168.906 292.512 162.976 294.622 156.476C297.252 147.996 298.342 139.096 297.852 130.216L297.692 129.656H297.702ZM281.082 182.276C275.312 186.916 268.982 190.796 262.242 193.826C260.842 196.566 259.152 199.136 257.202 201.506C266.432 197.076 274.622 190.706 281.232 182.836L281.082 182.276ZM224.422 208.886C221.612 207.596 218.942 206.016 216.462 204.156C209.712 204.356 202.952 203.836 196.312 202.576C205.172 206.786 214.782 209.126 224.572 209.446L224.422 208.886ZM176.432 189.546C180.492 193.046 185.272 195.596 190.432 197.026C197.332 199.096 204.492 200.176 211.692 200.236C209.922 198.626 208.242 196.926 206.652 195.146C201.222 188.776 196.632 181.706 193.002 174.136C188.452 173.886 183.912 173.296 179.462 172.356C171.402 171.016 163.842 167.496 157.602 162.176C161.702 172.856 168.202 182.416 176.582 190.106L176.442 189.556L176.432 189.546ZM154.212 151.236C156.512 155.636 159.872 159.386 163.982 162.126C169.002 165.136 174.512 167.236 180.252 168.326C183.832 169.066 187.442 169.576 191.082 169.846C187.422 161.566 184.602 152.916 182.672 144.056C181.162 137.356 180.152 130.546 179.652 123.696L177.732 123.346C173.472 122.806 169.342 121.416 165.602 119.246C161.872 117.076 158.602 114.176 155.972 110.716C151.752 123.626 151.092 137.456 154.062 150.706L154.212 151.226V151.236ZM158.092 105.796C159.902 112.616 167.612 117.446 178.692 119.796H179.602C179.052 109.076 180.212 98.3461 183.022 87.9961C184.882 80.5461 188.322 73.6061 193.092 67.6361C180.902 73.6461 170.642 83.0161 163.472 94.6561C161.342 98.0861 159.492 101.706 157.932 105.446L158.082 105.806L158.092 105.796Z" fill="#E8ECED"/>
<path fill-rule="evenodd" clip-rule="evenodd" d="M505.454 126.866C505.454 120.326 504.474 114.296 502.524 108.756C500.564 103.236 497.764 98.4455 494.074 94.3755C490.524 90.3255 486.214 87.1556 481.164 84.8956C476.104 82.6456 470.484 81.5156 464.284 81.5156C458.084 81.5156 452.394 82.6456 447.244 84.8956C442.194 87.1556 437.824 90.3155 434.144 94.3755C430.594 98.4455 427.834 103.236 425.874 108.756C423.914 114.296 422.944 120.326 422.944 126.866C422.944 133.406 423.914 139.506 425.874 145.156C427.824 150.676 430.584 155.476 434.144 159.546C437.824 163.606 442.184 166.816 447.244 169.186C452.404 171.436 458.084 172.576 464.284 172.576C470.484 172.576 476.104 171.446 481.164 169.186C486.214 166.816 490.524 163.606 494.074 159.546C497.754 155.476 500.564 150.686 502.524 145.156C504.474 139.506 505.454 133.416 505.454 126.866ZM524.914 126.866C524.914 135.556 523.414 143.626 520.434 151.076C517.454 158.526 513.254 165.006 507.864 170.526C502.574 175.946 496.204 180.236 488.744 183.396C481.284 186.436 473.064 187.966 464.104 187.966C455.144 187.966 446.944 186.436 439.484 183.396C432.124 180.236 425.754 175.946 420.364 170.526C415.084 165.006 410.944 158.516 407.964 151.076C404.974 143.626 403.484 135.566 403.484 126.866C403.484 118.176 404.974 110.116 407.964 102.666C410.944 95.2155 415.084 88.7855 420.364 83.3755C425.754 77.9555 432.134 73.7255 439.484 70.6755C446.944 67.5255 455.154 65.9355 464.104 65.9355C473.054 65.9355 481.274 67.5255 488.744 70.6755C496.204 73.7255 502.574 77.9555 507.864 83.3755C513.244 88.7855 517.444 95.2255 520.434 102.666C523.404 110.106 524.914 118.176 524.914 126.866Z" fill="white"/>
<path fill-rule="evenodd" clip-rule="evenodd" d="M638.664 68.8057C645.314 68.8057 651.164 69.8157 656.214 71.8557C661.274 73.8857 665.414 76.6356 668.624 80.1556C671.954 83.5356 674.424 87.5456 676.024 92.1656C677.754 96.6756 678.614 101.466 678.614 106.546C678.614 111.396 677.754 116.146 676.024 120.756C674.304 125.276 671.554 129.286 667.754 132.776C664.084 136.266 659.324 139.096 653.464 141.236C647.734 143.386 640.834 144.456 632.804 144.456C627.294 144.456 622.864 144.226 619.534 143.776C616.204 143.206 614.084 142.816 613.164 142.586V185.076H594.914V78.9557C594.914 75.6857 595.834 73.2057 597.664 71.5157C599.504 69.7057 602.254 68.8057 605.934 68.8057H638.664ZM659.494 106.546C659.494 103.386 659.034 100.456 658.114 97.7557C657.304 94.9257 655.924 92.5056 653.984 90.4656C652.024 88.3356 649.444 86.6957 646.234 85.5657C643.134 84.3257 639.234 83.7057 634.524 83.7057H613.164V127.706C614.204 128.046 616.144 128.446 619.024 128.886C622.014 129.346 625.464 129.566 629.364 129.566C634.994 129.566 639.694 128.956 643.484 127.706C647.384 126.466 650.484 124.826 652.784 122.806C655.194 120.656 656.914 118.236 657.954 115.526C658.994 112.716 659.504 109.716 659.504 106.556L659.494 106.546Z" fill="white"/>
<path fill-rule="evenodd" clip-rule="evenodd" d="M826.108 68.8057C831.968 68.8057 834.888 71.4557 834.888 76.7557C834.888 78.6757 834.598 80.3756 834.028 81.8356C833.458 83.3056 832.988 84.3257 832.658 84.8857H792.698V185.066H774.098V84.8857H743.438C737.578 84.8857 734.648 82.2257 734.648 76.9257C734.648 75.0157 734.948 73.3256 735.508 71.8456C736.088 70.3856 736.548 69.3657 736.898 68.8057H826.108Z" fill="white"/>
<path fill-rule="evenodd" clip-rule="evenodd" d="M897.68 77.4357C897.68 74.4957 898.55 72.3557 900.27 71.0057C901.99 69.5457 904.4 68.8057 907.51 68.8057C909.46 68.8057 911.24 69.0957 912.85 69.6457C914.58 70.1057 915.72 70.5056 916.3 70.8356V185.066H897.69V77.4357H897.68Z" fill="white"/>
<path fill-rule="evenodd" clip-rule="evenodd" d="M1010.03 118.906C1012.89 116.196 1016.46 112.986 1020.71 109.266C1024.96 105.426 1029.38 101.476 1033.97 97.4159C1038.68 93.2359 1043.27 89.2359 1047.75 85.3959C1052.34 81.4559 1056.3 78.0759 1059.62 75.2459C1061.92 73.2159 1063.98 71.6359 1065.83 70.5059C1067.67 69.3759 1070.13 68.8059 1073.23 68.8059C1074.96 68.8059 1076.5 69.0959 1077.89 69.6459C1079.37 70.2159 1080.58 70.8359 1081.5 71.5159C1082.53 72.1859 1083.34 72.8759 1083.91 73.5459C1084.48 74.2159 1084.88 74.6759 1085.13 74.8959C1083.97 75.9159 1081.97 77.6059 1079.1 79.9759C1076.22 82.3459 1072.94 85.1059 1069.27 88.2559C1065.6 91.4159 1061.69 94.7459 1057.56 98.2459C1053.43 101.746 1049.46 105.196 1045.67 108.566C1041.88 111.836 1038.5 114.836 1035.51 117.536C1032.53 120.136 1030.29 122.166 1028.78 123.626C1040.51 133.676 1051.52 143.886 1061.86 154.266C1072.19 164.516 1081.33 174.796 1089.25 185.056H1066.16C1062.83 180.996 1058.93 176.596 1054.45 171.856C1049.97 167.016 1045.21 162.156 1040.15 157.306C1035.23 152.446 1030.11 147.776 1024.84 143.256C1019.68 138.626 1014.73 134.626 1010.03 131.246V185.056H991.422V77.4259C991.422 74.4859 992.282 72.3459 994.012 70.9959C995.742 69.5359 998.132 68.7959 1001.25 68.7959C1003.2 68.7959 1004.97 69.0859 1006.59 69.6359C1008.32 70.0959 1009.46 70.4959 1010.04 70.8259V118.886L1010.03 118.906Z" fill="white"/>
<path fill-rule="evenodd" clip-rule="evenodd" d="M1238.51 126.866C1238.51 120.326 1237.53 114.296 1235.58 108.756C1233.62 103.236 1230.81 98.4455 1227.14 94.3755C1223.58 90.3255 1219.27 87.1556 1214.22 84.8956C1209.16 82.6456 1203.53 81.5156 1197.34 81.5156C1191.14 81.5156 1185.47 82.6456 1180.3 84.8956C1175.25 87.1556 1170.87 90.3155 1167.21 94.3755C1163.64 98.4455 1160.88 103.236 1158.93 108.756C1156.98 114.296 1155.99 120.326 1155.99 126.866C1155.99 133.406 1156.98 139.506 1158.93 145.156C1160.88 150.676 1163.64 155.476 1167.21 159.546C1170.87 163.606 1175.24 166.816 1180.3 169.186C1185.47 171.436 1191.14 172.576 1197.34 172.576C1203.53 172.576 1209.16 171.446 1214.22 169.186C1219.28 166.816 1223.58 163.606 1227.14 159.546C1230.81 155.476 1233.62 150.686 1235.58 145.156C1237.53 139.506 1238.51 133.416 1238.51 126.866ZM1257.97 126.866C1257.97 135.556 1256.47 143.626 1253.49 151.076C1250.51 158.526 1246.32 165.006 1240.92 170.526C1235.64 175.946 1229.27 180.236 1221.8 183.396C1214.33 186.436 1206.12 187.966 1197.16 187.966C1188.21 187.966 1180 186.436 1172.53 183.396C1165.18 180.236 1158.81 175.946 1153.41 170.526C1148.13 165.006 1143.99 158.516 1141.01 151.076C1138.03 143.626 1136.53 135.566 1136.53 126.866C1136.53 118.176 1138.03 110.116 1141.01 102.666C1143.99 95.2155 1148.13 88.7855 1153.41 83.3755C1158.81 77.9555 1165.18 73.7255 1172.53 70.6755C1179.99 67.5255 1188.21 65.9355 1197.16 65.9355C1206.12 65.9355 1214.33 67.5255 1221.8 70.6755C1229.26 73.7255 1235.63 77.9555 1240.92 83.3755C1246.32 88.7855 1250.51 95.2255 1253.49 102.666C1256.47 110.106 1257.97 118.176 1257.97 126.866Z" fill="white"/>
<path fill-rule="evenodd" clip-rule="evenodd" d="M1436.17 185.076C1436.05 183.276 1435.81 179.996 1435.47 175.246C1435.24 170.506 1434.96 164.986 1434.61 158.676C1434.27 152.346 1433.86 145.706 1433.4 138.706C1433.06 131.696 1432.71 125.106 1432.38 118.906C1432.02 112.696 1431.68 107.226 1431.35 102.496C1431.12 97.7457 1430.94 94.5256 1430.83 92.8456C1429.68 95.2056 1428.24 98.2057 1426.52 101.816C1424.8 105.416 1422.9 109.316 1420.85 113.496C1418.77 117.666 1416.66 122.066 1414.47 126.696C1412.29 131.206 1410.11 135.616 1407.93 139.886C1405.86 144.176 1403.85 148.236 1401.9 152.076C1400.06 155.916 1398.45 159.176 1397.07 161.886H1383.45C1381.39 157.826 1378.87 152.806 1375.88 146.826C1373.01 140.846 1369.96 134.646 1366.75 128.216C1363.65 121.676 1360.56 115.306 1357.45 109.096C1354.46 102.766 1351.82 97.3556 1349.52 92.8456C1349.4 95.4356 1349.17 99.1557 1348.83 104.016C1348.6 108.866 1348.32 114.286 1347.96 120.266C1347.62 126.246 1347.28 132.496 1346.94 139.046C1346.58 145.476 1346.24 151.686 1345.9 157.666C1345.55 163.536 1345.26 168.886 1345.04 173.736C1344.8 178.596 1344.64 182.376 1344.52 185.076H1326.25C1326.37 182.136 1326.54 177.906 1326.77 172.386C1327.11 166.736 1327.46 160.526 1327.8 153.756C1328.15 146.886 1328.49 139.716 1328.84 132.266C1329.3 124.706 1329.7 117.496 1330.05 110.616C1330.51 103.726 1330.85 97.5257 1331.07 91.9957C1331.41 86.4557 1331.7 82.2357 1331.93 79.3057C1332.17 75.9157 1333.37 73.3257 1335.55 71.5157C1337.73 69.7157 1340.5 68.8057 1343.82 68.8057C1347.15 68.8057 1349.96 69.3157 1352.26 70.3257C1354.55 71.2257 1356.28 72.2957 1357.43 73.5457C1358.34 75.4457 1359.61 78.1057 1361.22 81.4957C1362.94 84.7657 1364.77 88.4956 1366.73 92.6656C1368.81 96.7256 1370.92 101.006 1373.1 105.526C1375.4 110.036 1377.58 114.496 1379.65 118.896C1381.83 123.176 1383.89 127.246 1385.86 131.076C1387.8 134.806 1389.47 138.006 1390.85 140.726C1392.69 137.216 1394.98 132.606 1397.74 126.836C1400.61 121.086 1403.55 115.176 1406.53 109.076C1409.63 102.866 1412.5 96.9956 1415.14 91.4756C1417.89 85.9456 1420.03 81.6657 1421.51 78.6157C1422.89 75.7957 1424.62 73.4857 1426.69 71.6857C1428.74 69.7657 1431.91 68.8057 1436.16 68.8057C1439.49 68.8057 1442.07 69.2556 1443.9 70.1656C1445.85 70.9456 1447.12 71.5656 1447.69 72.0256C1447.92 75.1856 1448.21 79.7557 1448.56 85.7357C1448.9 91.6057 1449.23 98.2056 1449.58 105.536C1450.04 112.866 1450.5 120.536 1450.95 128.546C1451.41 136.556 1451.87 144.226 1452.32 151.556C1452.79 158.886 1453.13 165.556 1453.35 171.526C1453.7 177.396 1453.98 181.906 1454.22 185.066H1436.14L1436.17 185.076Z" fill="white"/>
<path d="M1549.31 88.2656H1581.35C1601.56 88.2656 1612.16 94.2956 1612.16 109.926C1612.16 116.176 1609.37 121.646 1603.89 125.106C1611.37 128.786 1614.72 134.926 1614.72 142.406C1614.72 156.806 1604.56 166.416 1582.79 166.416H1549.3V88.2656H1549.31ZM1597.64 110.036C1597.64 104.126 1594.3 101.886 1581.23 101.886H1563.59V119.076H1582.79C1594.06 119.076 1597.64 116.176 1597.64 110.026V110.036ZM1600.11 142.526C1600.11 135.716 1596.31 132.806 1583.59 132.806H1563.6V152.796H1582.47C1596.87 152.796 1600.12 149.896 1600.12 142.526H1600.11Z" fill="#274B9B"/>
<path d="M1688.45 166.416H1675.83V159.156H1675.38C1673.37 161.466 1670.84 163.496 1667.79 165.246C1664.74 166.996 1661.01 167.876 1656.62 167.876C1653.64 167.876 1650.82 167.386 1648.13 166.426C1645.45 165.456 1643.11 163.986 1641.1 162.016C1639.09 160.046 1637.49 157.566 1636.3 154.586C1635.11 151.606 1634.51 148.146 1634.51 144.196V110.246H1647.24V142.406C1647.24 145.016 1647.65 147.186 1648.47 148.936C1649.29 150.686 1650.31 152.106 1651.54 153.176C1652.77 154.256 1654.18 155.036 1655.78 155.516C1657.38 156.006 1658.96 156.246 1660.53 156.246C1662.47 156.246 1664.36 155.876 1666.23 155.126C1668.09 154.386 1669.72 153.266 1671.14 151.776C1672.55 150.286 1673.69 148.466 1674.55 146.306C1675.4 144.146 1675.83 141.576 1675.83 138.596V110.236H1688.45V166.406V166.416Z" fill="#274B9B"/>
<path d="M1726.25 166.976C1723.01 166.386 1720.11 165.356 1717.54 163.906C1714.97 162.456 1712.85 160.486 1711.17 157.986C1709.5 155.496 1708.51 152.346 1708.22 148.546H1721.17C1721.54 150.256 1722.25 151.676 1723.29 152.786C1724.33 153.906 1725.54 154.796 1726.92 155.466C1728.3 156.136 1729.8 156.626 1731.44 156.916C1733.08 157.216 1734.68 157.366 1736.24 157.366C1737.58 157.366 1738.96 157.256 1740.37 157.026C1741.78 156.806 1743.07 156.436 1744.22 155.906C1745.37 155.386 1746.34 154.676 1747.12 153.786C1747.9 152.896 1748.29 151.736 1748.29 150.326C1748.29 148.246 1747.34 146.736 1745.44 145.806C1743.54 144.876 1741.16 144.166 1738.29 143.686C1735.42 143.206 1732.33 142.736 1729.02 142.286C1725.71 141.836 1722.62 141.036 1719.75 139.886C1716.88 138.726 1714.51 137.056 1712.6 134.856C1710.7 132.656 1709.75 129.546 1709.75 125.526C1709.75 122.176 1710.51 119.426 1712.04 117.266C1713.56 115.106 1715.51 113.396 1717.9 112.126C1720.28 110.856 1722.91 109.986 1725.78 109.496C1728.64 109.016 1731.41 108.776 1734.1 108.776C1737 108.776 1739.92 109.056 1742.87 109.616C1745.81 110.176 1748.49 111.146 1750.91 112.516C1753.33 113.896 1755.34 115.716 1756.94 117.986C1758.54 120.256 1759.49 123.146 1759.79 126.636H1746.84C1746.54 125.146 1745.93 123.916 1745 122.956C1744.07 121.986 1743.01 121.226 1741.82 120.666C1740.63 120.106 1739.35 119.736 1737.97 119.546C1736.59 119.356 1735.27 119.266 1734.01 119.266C1733.04 119.266 1731.89 119.346 1730.55 119.486C1729.21 119.636 1727.94 119.936 1726.75 120.376C1725.56 120.826 1724.55 121.476 1723.74 122.326C1722.92 123.186 1722.51 124.246 1722.51 125.506C1722.51 127.446 1723.46 128.816 1725.36 129.636C1727.26 130.456 1729.64 131.106 1732.51 131.586C1735.37 132.076 1738.45 132.536 1741.72 132.986C1744.99 133.436 1748.07 134.256 1750.93 135.446C1753.8 136.636 1756.18 138.366 1758.08 140.636C1759.98 142.906 1760.93 146.126 1760.93 150.296C1760.93 153.946 1760.18 156.906 1758.69 159.176C1757.2 161.446 1755.27 163.236 1752.88 164.536C1750.5 165.836 1747.84 166.716 1744.9 167.156C1741.96 167.606 1739.07 167.826 1736.24 167.826C1732.82 167.826 1729.48 167.526 1726.25 166.936V166.976Z" fill="#274B9B"/>
<path d="M1783.87 99.4761C1782.34 98.1761 1781.58 96.4461 1781.58 94.2861C1781.58 92.1261 1782.34 90.4161 1783.87 89.1461C1785.4 87.8761 1787.31 87.2461 1789.62 87.2461C1791.93 87.2461 1793.84 87.8761 1795.37 89.1461C1796.9 90.4161 1797.66 92.1261 1797.66 94.2861C1797.66 96.4461 1796.9 98.1761 1795.37 99.4761C1793.84 100.776 1791.93 101.426 1789.62 101.426C1787.31 101.426 1785.39 100.776 1783.87 99.4761ZM1783.26 110.246H1795.88V166.416H1783.26V110.246Z" fill="#274B9B"/>
<path d="M1822.1 110.246H1834.72V117.506H1835.17C1837.18 115.196 1839.71 113.166 1842.77 111.416C1845.82 109.666 1849.54 108.796 1853.93 108.796C1856.91 108.796 1859.74 109.276 1862.42 110.246C1865.1 111.216 1867.45 112.686 1869.46 114.656C1871.47 116.626 1873.07 119.106 1874.26 122.086C1875.45 125.066 1876.05 128.526 1876.05 132.476V166.426H1863.32V134.266C1863.32 131.656 1862.91 129.486 1862.09 127.736C1861.27 125.986 1860.25 124.566 1859.02 123.486C1857.79 122.416 1856.38 121.626 1854.78 121.146C1853.18 120.666 1851.6 120.416 1850.03 120.416C1848.09 120.416 1846.2 120.786 1844.34 121.536C1842.48 122.286 1840.84 123.396 1839.42 124.886C1838.01 126.376 1836.87 128.196 1836.02 130.356C1835.16 132.516 1834.73 135.086 1834.73 138.066V166.426H1822.11V110.256L1822.1 110.246Z" fill="#274B9B"/>
<path d="M1913.96 165.696C1910.42 164.246 1907.35 162.236 1904.75 159.666C1902.14 157.096 1900.08 154.006 1898.55 150.396C1897.02 146.786 1896.27 142.746 1896.27 138.286C1896.27 133.826 1897.03 129.896 1898.55 126.276C1900.08 122.666 1902.14 119.576 1904.75 117.006C1907.36 114.436 1910.45 112.436 1914.02 110.976C1917.59 109.526 1921.39 108.796 1925.41 108.796C1929.43 108.796 1933.28 109.486 1936.75 110.866C1940.21 112.246 1943.2 114.176 1945.74 116.676C1948.27 119.166 1950.26 122.206 1951.71 125.776C1953.16 129.346 1953.89 133.336 1953.89 137.726C1953.89 138.326 1953.87 138.916 1953.83 139.516C1953.79 140.116 1953.77 140.636 1953.77 141.076C1953.77 141.596 1953.73 142.116 1953.66 142.636H1909.11C1909.48 144.866 1910.13 146.896 1911.06 148.726C1911.99 150.556 1913.18 152.096 1914.63 153.366C1916.08 154.636 1917.7 155.616 1919.49 156.326C1921.28 157.036 1923.25 157.386 1925.41 157.386C1928.46 157.386 1931.2 156.716 1933.62 155.376C1936.03 154.036 1937.92 152.136 1939.26 149.676H1952.66C1951.69 152.286 1950.35 154.686 1948.64 156.876C1946.93 159.076 1944.9 160.986 1942.55 162.626C1940.2 164.266 1937.6 165.546 1934.73 166.476C1931.86 167.406 1928.75 167.866 1925.4 167.866C1921.31 167.866 1917.49 167.146 1913.96 165.686V165.696ZM1940.81 132.806C1940.44 130.796 1939.82 128.976 1938.97 127.336C1938.11 125.696 1937.03 124.286 1935.73 123.096C1934.43 121.906 1932.92 120.976 1931.21 120.306C1929.5 119.636 1927.56 119.296 1925.4 119.296C1923.24 119.296 1921.42 119.616 1919.71 120.246C1918 120.876 1916.43 121.776 1915.02 122.926C1913.61 124.076 1912.41 125.496 1911.45 127.166C1910.48 128.846 1909.78 130.726 1909.33 132.806H1940.82H1940.81Z" fill="#274B9B"/>
<path d="M1987.98 166.976C1984.74 166.386 1981.84 165.356 1979.27 163.906C1976.7 162.456 1974.58 160.486 1972.9 157.986C1971.23 155.496 1970.24 152.346 1969.95 148.546H1982.9C1983.27 150.256 1983.98 151.676 1985.02 152.786C1986.06 153.906 1987.27 154.796 1988.65 155.466C1990.03 156.136 1991.53 156.626 1993.17 156.916C1994.81 157.216 1996.41 157.366 1997.97 157.366C1999.31 157.366 2000.69 157.256 2002.1 157.026C2003.51 156.806 2004.8 156.436 2005.95 155.906C2007.1 155.386 2008.07 154.676 2008.85 153.786C2009.63 152.896 2010.02 151.736 2010.02 150.326C2010.02 148.246 2009.07 146.736 2007.17 145.806C2005.27 144.876 2002.89 144.166 2000.02 143.686C1997.15 143.206 1994.06 142.736 1990.75 142.286C1987.44 141.836 1984.35 141.036 1981.48 139.886C1978.61 138.726 1976.24 137.056 1974.33 134.856C1972.43 132.656 1971.48 129.546 1971.48 125.526C1971.48 122.176 1972.24 119.426 1973.77 117.266C1975.29 115.106 1977.24 113.396 1979.63 112.126C1982.01 110.856 1984.64 109.986 1987.51 109.496C1990.37 109.016 1993.14 108.776 1995.83 108.776C1998.73 108.776 2001.65 109.056 2004.6 109.616C2007.54 110.176 2010.22 111.146 2012.64 112.516C2015.06 113.896 2017.07 115.716 2018.67 117.986C2020.27 120.256 2021.22 123.146 2021.52 126.636H2008.57C2008.27 125.146 2007.66 123.916 2006.73 122.956C2005.8 121.986 2004.74 121.226 2003.55 120.666C2002.36 120.106 2001.08 119.736 1999.7 119.546C1998.32 119.356 1997 119.266 1995.74 119.266C1994.77 119.266 1993.62 119.346 1992.28 119.486C1990.94 119.636 1989.67 119.936 1988.48 120.376C1987.29 120.826 1986.28 121.476 1985.47 122.326C1984.65 123.186 1984.24 124.246 1984.24 125.506C1984.24 127.446 1985.19 128.816 1987.09 129.636C1988.99 130.456 1991.37 131.106 1994.24 131.586C1997.1 132.076 2000.18 132.536 2003.45 132.986C2006.72 133.436 2009.8 134.256 2012.66 135.446C2015.53 136.636 2017.91 138.366 2019.81 140.636C2021.71 142.906 2022.66 146.126 2022.66 150.296C2022.66 153.946 2021.91 156.906 2020.42 159.176C2018.93 161.446 2017 163.236 2014.61 164.536C2012.23 165.836 2009.57 166.716 2006.63 167.156C2003.69 167.606 2000.8 167.826 1997.97 167.826C1994.55 167.826 1991.21 167.526 1987.98 166.936V166.976Z" fill="#274B9B"/>
<path d="M2056.55 166.976C2053.31 166.386 2050.41 165.356 2047.84 163.906C2045.27 162.456 2043.15 160.486 2041.47 157.986C2039.8 155.496 2038.81 152.346 2038.52 148.546H2051.47C2051.84 150.256 2052.55 151.676 2053.59 152.786C2054.63 153.906 2055.84 154.796 2057.22 155.466C2058.6 156.136 2060.1 156.626 2061.74 156.916C2063.38 157.216 2064.98 157.366 2066.54 157.366C2067.88 157.366 2069.26 157.256 2070.67 157.026C2072.08 156.806 2073.37 156.436 2074.52 155.906C2075.67 155.386 2076.64 154.676 2077.42 153.786C2078.2 152.896 2078.59 151.736 2078.59 150.326C2078.59 148.246 2077.64 146.736 2075.74 145.806C2073.84 144.876 2071.46 144.166 2068.59 143.686C2065.72 143.206 2062.63 142.736 2059.32 142.286C2056.01 141.836 2052.92 141.036 2050.05 139.886C2047.18 138.726 2044.81 137.056 2042.9 134.856C2041 132.656 2040.05 129.546 2040.05 125.526C2040.05 122.176 2040.81 119.426 2042.34 117.266C2043.86 115.106 2045.81 113.396 2048.2 112.126C2050.58 110.856 2053.21 109.986 2056.08 109.496C2058.94 109.016 2061.71 108.776 2064.4 108.776C2067.3 108.776 2070.22 109.056 2073.17 109.616C2076.11 110.176 2078.79 111.146 2081.21 112.516C2083.63 113.896 2085.64 115.716 2087.24 117.986C2088.84 120.256 2089.79 123.146 2090.09 126.636H2077.14C2076.84 125.146 2076.23 123.916 2075.3 122.956C2074.37 121.986 2073.31 121.226 2072.12 120.666C2070.93 120.106 2069.65 119.736 2068.27 119.546C2066.89 119.356 2065.57 119.266 2064.31 119.266C2063.34 119.266 2062.19 119.346 2060.85 119.486C2059.51 119.636 2058.24 119.936 2057.05 120.376C2055.86 120.826 2054.85 121.476 2054.04 122.326C2053.22 123.186 2052.81 124.246 2052.81 125.506C2052.81 127.446 2053.76 128.816 2055.66 129.636C2057.56 130.456 2059.94 131.106 2062.81 131.586C2065.67 132.076 2068.75 132.536 2072.02 132.986C2075.29 133.436 2078.37 134.256 2081.23 135.446C2084.1 136.636 2086.48 138.366 2088.38 140.636C2090.28 142.906 2091.23 146.126 2091.23 150.296C2091.23 153.946 2090.48 156.906 2088.99 159.176C2087.5 161.446 2085.57 163.236 2083.18 164.536C2080.8 165.836 2078.14 166.716 2075.2 167.156C2072.26 167.606 2069.37 167.826 2066.54 167.826C2063.12 167.826 2059.78 167.526 2056.55 166.936V166.976Z" fill="#274B9B"/>
</svg>
